<?xml version="1.0" encoding="UTF-8"?><svg id="Layer_2" xmlns="http://www.w3.org/2000/svg" viewBox="0 0 83.31 33.81"><defs><style>.cls-1{fill:#fff;stroke:#1d1d1b;stroke-linejoin:round;stroke-width:.5px;}</style></defs><g id="Layer_1-2"><path class="cls-1" d="m26.94,15.62c.52-1.68,4.59-8.61,4.59-8.61l.94.33,1.05-1.27,5.04,2.55s-.61,6.26,1.44,8.25c0,0-.83,1.38-.83,1.72l-4.87-1.83v-2.38h-.44s-1.13,2.77-1.18,3.71-.71,3.63.79,4.17c0,0,2,1.45,4.6,0l2.75,2.91.14.24.12,2.43-2.79,1.99s-2.75-1-5.33,0c-2.59,1-4.97-1.83-4.97-1.83l-.66-.8"/><path class="cls-1" d="m16.71,28.87c2.8,2.17,5.31.04,5.31.04.22.66.06,1.77.06,1.77l5.54-1.27-.44-5.04s-.22-8.08-.22-8.75.39-6.7.39-6.7l-3.72-.62-.16,2.5-.06,5.54c-.22,2.21.21,5.92.21,5.92-.67.44-2.48,0-2.48,0,0,0-.72-.61-1-1.33s.28-2.49.28-2.49c0,0,.78-2.21,1.5-3.21s1.05-3.21,1.05-3.21c1.22-5.87-.33-6.48-.33-6.48l-7.25,1.16c-.11,5.2-1.16,4.82-1.16,4.82l2.16.22-1.61,4.32s-.97,2.58-.73,5.06"/><path class="cls-1" d="m3.34,8.88s.44-1.94.44-2.44l7.86-2.49s1.38,1.88.66,5.92c-.72,4.04-3.43,11.52-3.43,11.52l-1.77,3.6,4.76-.5-1.5-1.88,3.65-1.5s2.34,5.05,3.39,7.43l-.85,3.09s-10.63-1.38-15.39,1.27c0,0-1.66-2.1-.55-6.26,0,0,1.99-5.87,1.99-7.42,0,0,1.27-4.1,1.33-5.98s.17-3.93.17-3.93l-.78-.44Z"/><path class="cls-1" d="m55.72,22.91l1.45.13s3.21,0,4.54-.5.94-1.38.94-1.38l-5.15.66-.8.04-.57-1.07-.1-8.29c.06-1.83,1.12-3.4,1.12-3.4,2.17.31,3.86-.47,3.86-.47l-1.14,6.28s-.72,3.72,1.14,4.05,1.61-.7,1.61-.7c-.5-.44-.66-4.32-.66-4.32l-.04-5.09h4.63c-.28,2.88-.05,8.75-.05,8.75l.94-.72.94,2.38-1.05.33c1.11,3.32.74,8.83.74,8.83-.81.75-3.95,1.02-3.95,1.02l-7.64-.5-2.38-1.74"/><path class="cls-1" d="m73.01,12.9l-.47,1.02-1.11,2.66-2.16,7.36c-.72,3.82.01,7.42.01,7.42,4.28,4.93,10.45,0,10.45,0-1.83-1.22-3.38-6.64-3.38-6.64-.55-1.66-.28-4.82-.28-4.82-.06-2.99,1.38-6.37,1.38-6.37l1.72-4.1,3.88-6.7-1.05-1.83c-4.32,1.05-12.9-.66-12.9-.66l-3.82,3.82s2.6,3.1,2.93,5.43c.33,2.33-.61,5.43-.61,5.43l5.4-2.02-1.36-4.29h3.07l-1.84,3.9"/><path class="cls-1" d="m40.92,18.11l-.44,5.51.17,5.12v1.69l5.98-.96v-7.18c3.54-1.44,3.49.83,3.49.83l-2.05,4.93c0,1.77,1.77,2.6,1.77,2.6l3.32-.33.58-.14.11-2.16s.61-1.88.94-2.71,2.33-3.38,2.33-3.38c1.16-1.83-.5-1.94-2.21-2.05-1.72-.11-4.82.44-4.82.44v-.33s3.82-1.94,5.37-2.86,0-4.28,0-4.28c0,0-.5-2.33-.61-2.86s0-2.9,0-2.9l-3.6.21v1.51c0,1.11-1.27,3.93-1.27,3.93-1.72,4.65-3.49,5.09-3.49,5.09l.17-2.82s-.11-3.54.17-4.37.22-3.43.22-3.43l-6.31,1.72c-.06,3.43-.97,5.47-.97,5.47h1.14v1.67l.02,2.05Z"/></g></svg>