<?xml version="1.0" encoding="UTF-8"?><svg id="Layer_2" xmlns="http://www.w3.org/2000/svg" viewBox="0 0 235.09 195.89"><defs><style>.cls-1{fill:#899100;}.cls-1,.cls-2{stroke:#1d1d1b;stroke-miterlimit:10;}.cls-2{fill:rgba(137,145,0,.82);}</style></defs><g id="Layer_1-2"><path class="cls-1" d="m234.59,52.97v-20.87c0-5.32-5.68-9.45-9.16-11.48-1.54-.9-3.28-1.38-5.06-1.38h-110.27c-11.32,0-14.74-2.83-14.74-2.83,0,0-4.13-2.36-12.5-8.84-6.34-4.91-10.51-6.44-12.17-6.89-.46-.13-.93-.18-1.4-.18H15.55c-5.25,0-9.05,3.87-11.44,7.45-2.05,3.07-3.1,6.71-3.15,10.41l-.38,28.52-.07,6.59s-.11-2.9.63-4.87.73-2.63,1.29-3.94c.45-1.07,1.25-2.65,1.52-3.2.07-.14.14-.26.22-.4.33-.54,1.28-2.05,1.87-2.73.73-.84,2.59-2.93,4.45-3.74s3.06-1.36,5.75-1.52,9.09,0,9.09,0h194.01c.77,0,1.53.16,2.24.48.58.26,1.25.56,1.65.78.81.44,3.25,1.86,4.35,2.76,1.1.9,2.7,2.16,4.05,4.02,1.35,1.86,2.22,3.75,2.49,4.97.27,1.22.41,2.29.41,2.29"/><path class="cls-2" d="m.51,53.33c0-1.5.18-2.99.55-4.45,1.3-5.11,5.26-15.81,15.66-15.81h202.31c1.04,0,2.06.23,3,.67,3.67,1.72,12.55,6.8,12.55,15.85v129.72c0,.46-.04.92-.13,1.37-.63,3.11-3.87,14.7-17.13,14.7H16.71c-.45,0-.9-.04-1.35-.13-3.13-.63-14.85-3.96-14.85-18.79V53.33Z"/></g></svg>